HIERARCHY
ROOT Hips
{
	OFFSET 0.00000 0.00000 0.00000
	CHANNELS 6 Xposition Yposition Zposition Yrotation Zrotation Xrotation 
	JOINT Lumbar
	{
		OFFSET 0 0 0
		CHANNELS 3 Zrotation Xrotation Yrotation
		JOINT Neck
		{
			OFFSET 0.00 0.2701 0.00
			CHANNELS 3 Zrotation Xrotation Yrotation
			End Site
			{
				OFFSET 0.00 0.1379 0.00
			}
		}
		JOINT RightShoulder
		{
			OFFSET 0.0119 0.2289 0.1181
			CHANNELS 3 Zrotation Xrotation Yrotation
			JOINT RightElbow
			{
				OFFSET 0.00 -0.1475 0.00
				CHANNELS 2 Zrotation Yrotation
				JOINT RightWrist
				{
					OFFSET 0.00 -0.1605 0.00
					CHANNELS 2 Zrotation Xrotation
					End Site
					{
						OFFSET 0.0040 -0.1068 0.0006
					}
				}
			}
		}
		JOINT LeftShoulder
		{
			OFFSET 0.0119 0.2289 -0.1181
			CHANNELS 3 Zrotation Xrotation Yrotation
			JOINT LeftElbow
			{
				OFFSET 0.00 -0.1475 0.00
				CHANNELS 2 Zrotation Yrotation
				JOINT LeftWrist
				{
					OFFSET 0.00 -0.1605 0.00
					CHANNELS 2 Zrotation Xrotation
					End Site
					{
						OFFSET 0.0040 -0.1068 -0.0006
					}
				}
			}
		}
	}
	JOINT RightHip
	{
		OFFSET 0.0316 -0.0424 0.0458
		CHANNELS 3 Zrotation Xrotation Yrotation
		JOINT RightKnee
		{
			OFFSET 0.00 -0.2438 0.00
			CHANNELS 1 Zrotation
			JOINT RightAnkle
			{
				OFFSET 0.00 -0.2449 0.00
				CHANNELS 3 Zrotation Xrotation Yrotation
				End Site
				{
					OFFSET 0.1237 -0.0542 0.0051
				}
			}
		}
	}
	JOINT LeftHip
	{
		OFFSET 0.0316 -0.0424 -0.0458
		CHANNELS 3 Zrotation Xrotation Yrotation
		JOINT LeftKnee
		{
			OFFSET 0.00 -0.2438 0.00
			CHANNELS 1 Zrotation
			JOINT LeftAnkle
			{
				OFFSET 0.00 -0.2449 0.00
				CHANNELS 3 Zrotation Xrotation Yrotation
				End Site
				{
					OFFSET 0.1237 -0.0542 -0.0051
				}
			}
		}
	}
}
MOTION
Frames: 33
Frame Time: 0.02
-1.12106 -0.01555 0.19682 1009.01714 -42.80552 -1.27469 52.43481 -0.173 6.80906 -2.69641 -3.56117 -2.11994 -44.23042 7.31512 39.24467 36.91178 94.44387 -22.0949 -8.23391 -41.08995 0.15626 -37.29834 42.70636 -105.08116 -18.43076 8.59525 32.93835 2.92095 -13.60942 -36.53166 -8.84966 -1.14028 -2.91039 64.9411 11.10173 13.74279 -18.74174 -11.05049 2.20016 3.52063
-1.11294 -0.01447 0.20648 1009.12052 -42.3754 -0.99789 52.50319 -0.35055 5.70232 -2.82216 -3.70371 -2.11994 -44.29379 6.70697 39.65755 37.07048 95.72084 -22.89289 -7.97601 -41.32096 -0.00692 -38.10461 42.78522 -104.90761 -19.14438 8.73636 34.25094 2.45528 -12.09728 -40.10683 -9.77481 -1.24853 -3.00423 64.01409 10.57666 12.45931 -20.57363 -10.672 2.86554 3.83359
-1.10498 -0.01349 0.21541 1009.22139 -41.82785 -0.79203 52.32539 -0.4755 4.65773 -2.84858 -3.8324 -2.11994 -44.38227 6.01888 40.25262 37.20025 97.59869 -23.93251 -7.53601 -41.49702 -0.16639 -39.12146 42.76541 -104.22424 -19.94949 8.81962 35.98726 2.13771 -10.55639 -44.18532 -10.80154 -1.38634 -3.11628 62.74333 9.95515 12.44216 -21.88402 -10.33691 2.63936 3.70137
-1.09698 -0.01247 0.22463 1009.32748 -41.3372 -0.56606 52.25799 -0.61867 3.57513 -2.92664 -3.96731 -2.11994 -44.45658 5.37483 40.74432 37.34176 99.14068 -24.81147 -7.19535 -41.6968 -0.33729 -40.01361 42.77684 -103.79107 -20.67696 8.91961 37.53763 1.76077 -9.08372 -47.98668 -11.72692 -1.51037 -3.21736 61.63672 9.38707 11.80869 -23.4299 -9.98499 2.83953 3.78222
-1.08883 -0.01139 0.23399 1009.42174 -40.82921 -0.28469 52.19865 -0.78706 2.52621 -2.9794 -4.10352 -2.11994 -44.53625 4.6951 41.33009 37.483 100.92027 -25.87652 -6.78571 -41.90315 -0.4696 -41.02596 42.84477 -103.26531 -21.54197 9.05412 39.06845 1.34501 -7.37715 -52.01771 -12.88619 -1.63626 -3.33005 60.50592 8.7727 11.30055 -25.01463 -9.62225 2.96984 3.82739
-1.08105 -0.01047 0.2429 1009.54145 -40.33175 -0.13701 52.06411 -0.89081 1.42489 -3.06035 -4.23278 -2.11994 -44.61362 4.07394 41.75821 37.6192 102.36045 -26.6242 -6.47568 -42.08257 -0.68012 -41.83787 42.77319 -102.81685 -22.1499 9.10615 40.73728 1.04823 -6.15214 -55.66608 -13.58478 -1.76481 -3.42276 59.34178 8.23582 10.85578 -26.38098 -9.2919 3.02478 3.83661
-1.07422 -0.00997 0.2508 1009.68945 -39.87497 -0.34321 51.77221 -0.81815 0.16391 -3.24423 -4.35329 -2.11994 -44.67181 3.60859 41.73666 37.76121 102.69023 -26.42142 -6.49006 -42.19799 -1.111 -42.05541 42.3262 -102.71147 -22.01479 8.93301 42.68355 1.03326 -6.25361 -58.30355 -12.95357 -1.89776 -3.45647 58.15123 7.91459 10.20668 -27.28521 -9.03972 3.10982 3.86531
-1.06778 -0.00963 0.25827 1009.86988 -39.43611 -0.68169 51.41432 -0.6838 -1.14989 -3.45924 -4.46595 -2.11994 -44.72841 3.2096 41.54606 37.89701 102.66697 -25.90309 -6.60973 -42.28887 -1.61945 -42.06188 41.74568 -102.70576 -21.63145 8.68152 44.75163 1.13581 -6.84194 -60.50267 -11.8614 -2.03175 -3.46943 56.94079 7.67921 9.59583 -27.98065 -8.81871 3.14356 3.87013
-1.06119 -0.00922 0.26592 1010.06189 -39.00047 -0.95893 51.09315 -0.58464 -2.43995 -3.65951 -4.57749 -2.11994 -44.79156 2.7973 41.40951 38.02949 102.82498 -25.53569 -6.67834 -42.39235 -2.09015 -42.15921 41.2345 -102.64937 -21.35803 8.4744 46.76441 1.19166 -7.21508 -62.7943 -11.0005 -2.16223 -3.49129 55.75006 7.41955 9.01956 -28.75857 -8.58347 3.18507 3.87815
-1.05448 -0.00882 0.27362 1010.14233 -38.51295 -1.2435 50.7362 -0.45407 -3.73121 -3.85988 -4.70824 -2.11994 -44.83288 2.31193 41.36642 38.1902 102.91211 -25.12139 -6.75529 -42.48651 -2.57251 -42.28754 40.6798 -102.58489 -21.05921 8.2289 48.79719 1.22298 -7.56454 -65.56665 -10.04882 -2.30581 -3.51552 54.50276 7.09463 8.26973 -29.57151 -8.34942 3.26129 3.90301
-1.04811 -0.00845 0.28113 1010.46352 -38.13903 -1.54306 50.43983 -0.37419 -5.02788 -4.06745 -4.79744 -2.11994 -44.91649 1.99448 41.09761 38.28673 103.05963 -24.75571 -6.84081 -42.59664 -3.04755 -42.2955 40.18977 -102.58363 -20.8041 8.04461 50.80503 1.33303 -8.07563 -67.21134 -9.17847 -2.42292 -3.53027 53.37266 6.92682 7.87115 -30.26825 -8.12051 3.26473 3.893
-1.0426 -0.00811 0.28825 1011.43638 -38.07803 -1.85309 50.34147 -0.45622 -6.37164 -4.29844 -4.77257 -2.11994 -45.1392 2.1344 40.14456 38.24613 103.41892 -24.34793 -6.93769 -42.74156 -3.4952 -42.04982 39.87241 -102.59091 -20.27825 8.0564 52.7684 1.61726 -8.93462 -65.9796 -8.62126 -2.4673 -3.52282 52.57618 7.1764 8.4544 -30.69909 -7.89122 3.08209 3.79341
-1.03742 -0.0078 0.2952 1012.65166 -38.13129 -2.17263 50.30544 -0.59039 -7.71005 -4.53394 -4.70652 -2.11994 -45.40059 2.43969 38.98654 38.13504 103.85425 -24.04185 -7.0382 -42.90573 -3.92992 -41.6862 39.63186 -102.68195 -19.87727 8.13121 54.68995 1.97871 -9.92788 -63.60132 -8.16757 -2.49093 -3.50965 51.89974 7.58051 9.37943 -31.02198 -7.66711 2.83208 3.66164
-1.03208 -0.0075 0.30222 1013.75893 -38.1297 -2.487 50.23184 -0.69643 -9.02271 -4.76064 -4.66014 -2.11994 -45.62941 2.66298 37.99079 38.02996 104.28115 -23.85985 -7.12879 -43.07243 -4.36373 -41.35517 39.38266 -102.8371 -19.73009 8.17241 56.59318 2.31345 -10.85627 -61.65993 -7.67964 -2.51566 -3.4959 51.16584 7.91172 10.128 -31.39425 -7.44495 2.6157 3.54618
-1.02679 -0.00713 0.30926 1014.85696 -38.13847 -2.8112 50.19247 -0.81892 -10.45963 -5.01718 -4.60921 -2.11994 -45.92032 2.91687 36.70484 38.03082 104.59286 -22.96581 -7.2568 -43.19395 -4.83177 -41.09726 39.02022 -102.58651 -18.31126 8.23224 58.65942 2.61666 -11.85026 -60.05862 -7.11442 -2.55024 -3.48252 50.44055 8.25826 10.96864 -31.75758 -7.20567 2.38383 3.4223
-1.02145 -0.00691 0.31624 1016.03295 -38.15574 -3.11345 50.10045 -0.92046 -11.63144 -5.21187 -4.55837 -2.11994 -46.09256 3.14613 35.96757 37.79901 105.15823 -23.56073 -7.30772 -43.4103 -5.22083 -40.67222 38.91069 -103.1715 -19.51372 8.26876 60.37343 3.00273 -12.69257 -57.48267 -6.74981 -2.59115 -3.48276 49.72958 8.60708 11.69711 -32.11665 -7.00295 2.1695 3.30892
-1.0159 -0.0071 0.32309 1017.35159 -38.14109 -3.36907 49.82306 -0.95053 -12.10944 -5.23778 -4.51535 -2.11994 -45.91461 3.26009 36.87804 36.90225 106.48261 -28.43346 -7.13292 -43.92058 -5.42623 -39.72299 39.50738 -106.28844 -28.44695 8.23024 61.13389 3.59352 -13.4409 -52.50042 -6.83545 -2.37254 -3.38456 48.99942 8.93655 12.03777 -32.49207 -6.8993 2.01724 3.23107
-1.01028 -0.00744 0.3299 1018.74258 -38.13581 -3.59854 49.49536 -0.95811 -12.31383 -5.20049 -4.47426 -2.11994 -45.61803 3.34392 38.33474 35.78147 108.04723 -34.76496 -6.88203 -44.51933 -5.54695 -38.62593 40.35186 -110.19916 -39.9199 8.16567 61.53954 4.26455 -13.97164 -46.58348 -7.13409 -2.20659 -3.32251 48.28471 9.26058 12.25225 -32.86762 -6.83234 1.88573 3.16529
-1.00467 -0.00772 0.33672 1020.10911 -38.14447 -3.82862 49.20748 -0.97696 -12.61878 -5.19008 -4.43411 -2.11994 -45.38465 3.44644 39.48608 34.78905 109.45262 -40.30742 -6.67342 -45.05306 -5.68475 -37.65995 41.06585 -113.58282 -49.88527 8.11019 62.1005 4.90273 -14.35362 -41.08696 -7.3918 -2.2105 -3.3386 47.5829 9.57836 12.52065 -33.24327 -6.74866 1.74707 3.0951
-0.99913 -0.00797 0.34355 1021.44889 -38.0814 -4.10678 48.8508 -0.99348 -13.02329 -5.18801 -4.38529 -2.11994 -45.11458 3.53609 40.86493 33.6811 111.07059 -46.39399 -6.43293 -45.69048 -5.91002 -36.42749 41.85706 -117.66363 -61.3368 8.06815 62.68294 5.53191 -15.74945 -35.5468 -7.42625 -1.42462 -2.96967 46.80299 9.93727 12.81594 -33.61478 -6.66487 1.5968 3.01938
-0.99343 -0.00831 0.35037 1022.85803 -38.16712 -4.27838 48.62387 -1.00843 -13.15641 -5.153 -4.35499 -2.11994 -44.89081 3.6402 41.91037 32.76269 112.30336 -51.68181 -6.24018 -46.13487 -5.93626 -35.70709 42.54639 -120.48983 -70.30692 7.99152 63.13967 6.1935 -15.02607 -29.91785 -7.96334 -2.26003 -3.39324 46.18554 10.20861 13.02017 -33.99581 -6.59059 1.47599 2.95824
-0.98735 -0.00889 0.35715 1024.44306 -38.6726 -4.16252 48.77465 -1.02752 -12.59945 -5.04653 -4.38011 -2.11994 -44.83541 3.81728 41.83419 32.41154 112.39973 -54.50028 -6.20225 -46.0048 -5.40668 -36.52013 42.88276 -119.57042 -71.69254 7.8223 63.30992 6.96197 -8.10501 -24.04361 -9.93829 -7.87333 -6.15234 46.03302 10.22697 13.00565 -34.40901 -6.52848 1.43655 2.93659
-0.98108 -0.00955 0.36394 1026.09379 -39.32483 -3.94048 49.05634 -1.04477 -11.78058 -4.90824 -4.42303 -2.11994 -44.8279 4.00481 41.41758 32.26045 112.10156 -56.44878 -6.21411 -45.68037 -4.68475 -37.83959 43.10884 -117.37726 -70.51215 7.61966 63.36944 7.75308 0.86893 -18.16007 -12.39318 -15.05767 -9.67883 46.03939 10.15918 12.90065 -34.83126 -6.47584 1.42548 2.92898
-0.97486 -0.01018 0.37076 1027.71186 -39.90202 -3.76635 49.27283 -1.0609 -11.08625 -4.78194 -4.45507 -2.11994 -44.79131 4.16924 41.20162 32.02629 111.99394 -58.73125 -6.20028 -45.45863 -4.06867 -38.87198 43.39338 -115.82327 -70.58035 7.4341 63.49892 8.50903 8.6402 -12.43765 -14.55975 -21.31739 -12.75152 45.95892 10.13794 12.83555 -35.24605 -6.42194 1.39837 2.91365
-0.96882 -0.0108 0.37744 1029.34443 -40.51496 -3.59155 49.51077 -1.0854 -10.35781 -4.66415 -4.49938 -2.11994 -44.78335 4.40817 40.80932 31.75442 111.85082 -61.31514 -6.19681 -45.18202 -3.37198 -40.1356 43.65505 -114.04056 -70.39423 7.23909 63.53937 9.37241 17.55179 -6.02261 -17.02629 -28.4694 -16.26829 45.93973 10.08437 12.77599 -35.67487 -6.35557 1.38505 2.90428
-0.96234 -0.01146 0.38442 1030.96146 -41.08803 -3.39479 49.73693 -1.09122 -9.6434 -4.52152 -4.52176 -2.11994 -44.72634 4.49731 40.69801 31.6074 111.68036 -63.05657 -6.18449 -44.96905 -2.79838 -41.04464 43.93035 -112.42374 -70.08894 7.05689 63.73571 10.01689 24.58039 -1.05642 -18.98417 -34.13386 -19.04275 45.83181 10.07902 12.67926 -36.07671 -6.31809 1.34967 2.88578
-0.95474 -0.01227 0.39221 1032.51719 -41.51483 -3.1507 49.88824 -1.05498 -9.0186 -4.32216 -4.48451 -2.11994 -44.54403 4.14785 41.42578 31.79569 111.56879 -62.57277 -6.13696 -45.00692 -2.61536 -40.81035 44.30613 -111.55082 -70.11076 6.91234 64.45786 10.04654 25.83099 -0.13581 -19.3703 -35.31133 -19.56773 45.42879 10.21664 12.55137 -36.40362 -6.34939 1.24483 2.83756
-0.94669 -0.01311 0.40033 1034.05425 -41.89579 -2.89086 50.02494 -0.99816 -8.42036 -4.09882 -4.42376 -2.11994 -44.30831 3.65128 42.44624 32.09833 111.43584 -61.27816 -6.07911 -45.10964 -2.56333 -40.21023 44.6901 -110.88853 -70.07402 6.78336 65.32912 9.85592 25.12178 -0.67149 -19.23207 -34.93215 -19.31861 44.93376 10.40793 12.38077 -36.70432 -6.41179 1.11692 2.77978
-0.9388 -0.0139 0.40832 1035.60201 -42.29869 -2.64642 50.17582 -0.94522 -7.82057 -3.88361 -4.3701 -2.11994 -44.08185 3.2373 43.34681 32.32148 111.28563 -60.4289 -6.02525 -45.16454 -2.44849 -39.80455 45.04727 -110.14412 -70.04418 6.65084 66.08992 9.76853 25.36762 -0.51614 -19.37066 -35.26737 -19.43482 44.48714 10.58195 12.1977 -37.01388 -6.46424 1.00066 2.72703
-0.93109 -0.01483 0.4162 1037.14608 -42.70469 -2.36266 50.30106 -0.91635 -7.16886 -3.6774 -4.33155 -2.11994 -43.91578 2.75856 44.19226 32.66005 111.23243 -59.25233 -5.97531 -45.29143 -2.3378 -39.29662 45.50382 -109.30285 -70.04696 6.50094 67.02946 9.66754 25.44237 -0.47912 -19.38034 -35.64517 -19.53135 44.01506 10.72267 12.14514 -37.33023 -6.49557 0.88087 2.67192
-0.9229 -0.01547 0.4244 1038.68837 -43.0881 -2.15944 50.47247 -0.83116 -6.63279 -3.4491 -4.25655 -2.11994 -43.61639 2.378 45.21157 32.79233 110.98134 -58.54268 -5.91503 -45.28475 -2.25577 -38.90923 45.74965 -108.72421 -69.95423 6.39298 67.63037 9.54381 25.34487 -0.54678 -19.50662 -35.52263 -19.46168 43.57606 10.94692 11.81284 -37.63416 -6.58295 0.76208 2.6192
-0.91356 -0.0153 0.43342 1040.26623 -43.44812 -2.17392 50.79149 -0.60754 -6.43023 -3.14919 -4.07912 -2.11994 -42.91141 2.31997 46.76973 32.24134 110.15462 -59.61772 -5.82047 -44.90805 -2.18904 -38.93329 45.4744 -108.87161 -70.03469 6.38329 67.28912 9.39706 25.56139 -0.5079 -20.26486 -34.58311 -19.23709 43.21863 11.38603 10.7111 -37.8428 -6.77499 0.65641 2.57609
-0.90376 -0.01482 0.44273 1041.8365 -43.78103 -2.27161 51.1533 -0.32628 -6.3403 -2.83094 -3.86704 -2.11994 -42.08253 2.36384 48.47188 31.49147 109.13765 -61.14554 -5.717 -44.39344 -2.15252 -39.09075 44.97722 -109.27201 -69.96482 6.41772 66.59769 9.23707 25.61069 -0.53286 -21.1249 -33.15743 -18.84977 42.90466 11.90789 9.33196 -38.0535 -7.02931 0.55186 2.53562
